<svg width="538" height="357" viewBox="0 0 538 357" fill="none" xmlns="http://www.w3.org/2000/svg">
<rect opacity="0.2" x="2" y="2.03394" width="534" height="352" fill="#241722" stroke="url(#paint0_linear_183_882)" stroke-width="4"/>
<path fill-rule="evenodd" clip-rule="evenodd" d="M375.951 254.736C373.819 257.202 370.671 259.032 368.256 261.286C365.719 263.654 362.966 265.723 360.44 268.062C349.294 254.44 334.027 246.088 320.801 234.784C314.53 229.425 309.911 222.156 306.53 214.696C304.797 210.872 303.516 206.935 302.514 202.861C302.063 201.026 301.622 199.197 301.327 197.337C300.97 195.084 300.877 194.892 299.357 193.134C298.703 192.378 297.436 190.167 296.155 190.411C295.076 190.616 293.104 193.898 292.422 194.709C289.145 198.609 285.967 202.628 282.517 206.377C277.238 212.113 272.432 217.758 267.53 223.838C257.503 236.277 246.688 247.986 235.774 259.691C234.964 260.558 233.077 263.104 231.914 263.446C230.5 263.862 228.202 262.127 226.778 261.158C223.34 258.818 220.631 255.921 217.693 253.021C211.959 247.361 208.076 239.416 205.464 231.857C203.9 227.332 202.883 222.642 201.27 218.133C200.597 216.253 199.073 213.943 199.847 212.306C200.077 211.818 201.544 210.522 202.061 210.423C202.673 210.305 203.693 211.144 203.905 211.086C205.935 210.53 204.809 208.406 206.016 207.263C206.7 206.614 210.181 206.709 211.22 206.353C215.02 205.049 218.429 202.563 222.022 201.079C237.06 194.865 252.282 188.822 265.265 178.676C268.632 176.045 270.869 174.068 274.886 172.367C278.946 170.649 283.027 169.116 287.17 167.616C290.825 166.293 294.5 165.053 298.276 164.105C302.358 163.079 308.15 161.779 312.229 163.1C320.24 165.694 322.827 172.294 326.017 179.257C330.333 188.678 335.552 197.593 341.209 206.264C352.093 222.947 365.33 237.918 375.951 254.736Z" fill="#462730"/>
<path fill-rule="evenodd" clip-rule="evenodd" d="M134.695 107.245C134.254 107.021 130.813 108.422 130.235 108.636C127.927 109.492 125.754 110.915 123.58 112.072C125.246 114.1 126.913 116.128 128.578 118.156C130.211 114.15 132.31 110.845 134.695 107.245ZM135.831 132.168C135.264 132.231 140.05 143.732 140.609 145.023C142.643 149.72 144.778 154.371 146.838 159.056C148.835 163.595 151.368 167.772 153.919 172.013C156.101 175.64 158.346 181.269 161.638 183.956C159.56 174.734 159.833 164.131 153.871 156.388C147.691 148.361 141.581 140.523 135.831 132.168ZM375.951 255.146C366.716 240.521 355.155 227.584 345.525 213.221C340.133 205.178 334.884 197.033 330.345 188.472C327.044 182.245 324.992 173.36 319.892 168.599C317.645 166.502 315.244 164.449 312.229 163.509C308.102 162.223 302.421 163.498 298.275 164.514C290.551 166.408 283.004 169.35 275.687 172.439C268.265 175.572 261.933 181.2 255.227 185.721C248.034 190.572 240.247 194.106 232.188 197.199C225.171 199.893 218.928 203.76 211.948 206.471C210.557 207.011 207.718 206.932 206.552 207.637C205.294 208.395 205.789 210.635 204.263 211.461C203.574 211.834 203.345 210.483 202.816 210.505C202.17 210.532 201.58 211.291 200.957 211.771C198.42 213.728 199.975 215.033 200.979 217.726C204.253 226.501 206.013 235.429 210.61 243.713C214.389 250.523 219.798 256.624 226.167 261.132C227.136 261.818 230.294 264.477 231.431 264.3C232.455 264.141 234.538 261.42 235.245 260.681C238.452 257.327 241.383 253.719 244.589 250.36C249.541 245.169 254.309 239.838 259.116 234.576C264.696 228.467 269.634 221.546 274.66 215.019C276.971 212.016 279.947 209.57 282.517 206.786C285.972 203.042 289.145 199.018 292.422 195.119C293.414 193.939 295.075 190.921 296.616 190.956C297.696 190.981 299.6 193.523 300.165 194.32C302.264 197.282 302.255 202.63 303.299 206.327C305.846 215.342 310.44 224.147 316.741 231.103C323.006 238.021 331.031 242.94 338.441 248.501C346.468 254.525 354.073 260.69 360.439 268.471C362.966 266.132 365.719 264.063 368.255 261.695C370.671 259.441 373.819 257.611 375.951 255.146ZM257.075 296.519C258.87 296.538 261.911 297.642 263.517 296.977C258.753 291.705 254.377 287.183 248.35 283.319C242.095 279.31 235.86 275.337 229.785 271.061C217.541 262.444 208.536 252.224 203.422 237.873C202.105 234.178 201.223 230.302 200.258 226.503C199.739 224.457 198.705 214.885 196.95 214.059C195.91 213.569 188.085 219.069 186.845 219.754C183.946 221.357 181.036 222.601 178.039 223.855C171.597 226.552 164.956 228.61 158.124 230.327C149.934 232.386 144.355 228.979 139.282 222.542C133.525 215.239 128.742 206.998 123.479 199.329C121.086 195.84 119.103 192.358 117.335 188.51C116.178 185.993 111.59 179.2 113.176 176.518C117.699 179.962 119.326 186.809 122.407 191.419C126.247 197.166 130.575 202.584 134.434 208.325C137.68 213.152 140.992 219.002 145.787 222.473C150.005 225.525 154.012 224.587 158.552 223.215C164.053 221.552 169.756 220.733 175.148 218.671C180.983 216.44 186.504 213.275 192.197 210.694C194.851 209.49 198.029 208.807 200.53 207.306C202.685 206.014 202.364 205.331 202.522 202.579C202.707 199.368 202.92 196.155 203.062 192.942C203.157 190.782 201.989 187.855 202.782 186.243C196.319 187.363 190.002 188.864 183.584 190.192C180.07 190.919 176.682 191.817 173.132 192.388C171.779 192.606 169.929 192.6 168.717 193.189C167.751 192.912 167.258 193.088 167.239 193.718C167.193 194.061 167.12 194.398 167.019 194.73C165.037 195.631 163.885 193.698 162.166 191.843C160.045 189.554 158.457 186.976 156.901 184.286C153.421 178.272 149.411 172.616 146.191 166.433C142.909 160.129 140.244 153.38 137.462 146.841C134.909 140.841 133.275 134.352 130.454 128.495C129.196 125.88 127.6 123.718 125.737 121.509C124.2 119.686 121.835 115.754 119.539 114.917C118.932 114.695 117.343 115.067 116.653 115.018C115.279 114.92 114.054 114.416 112.648 114.526C109.602 114.764 106.282 116.69 103.849 118.383C105.422 119.785 109.356 121.489 106.53 124.014C103.788 126.465 102.273 122.068 101.227 120.141C96.2992 124.187 97.0115 129.767 96.4423 135.484C96.1449 138.468 95.3628 141.408 94.8583 144.348C94.4949 146.464 94.7497 148.652 94.6459 150.812C94.3811 156.302 93.8294 161.557 93.8563 166.969C93.8846 172.755 94.2787 178.342 94.7417 184.085C95.521 193.755 97.3064 203.428 98.8375 213.021C99.6989 218.414 100.878 223.653 102.022 228.958C103.321 234.979 105.724 240.681 107.072 246.687C108.445 244.942 109.477 244.933 111.698 245.164C113.406 245.342 114.553 244.936 114.453 247.307C114.389 248.844 113.032 250.019 111.531 250.287C109.574 250.637 108.909 249.66 107.9 248.178C107.664 250.985 109.552 253.92 110.299 256.662C111.006 259.26 111.474 261.807 112.661 264.294C113.82 266.72 114.812 269.113 115.984 271.516C116.524 272.621 117.029 273.744 117.575 274.846C117.852 275.405 118.177 276.174 118.589 276.645C119.555 277.748 119.402 277.213 120.533 277.842C122.998 279.211 122.072 278.87 122.13 281.697C122.186 284.486 123.616 286.534 125.909 288.102C130.775 291.428 135.574 292.353 141.105 294.034C146.259 295.6 151.688 296.944 157.145 296.913C163.83 296.876 170.425 295.999 177.109 295.911C184.483 295.813 191.928 295.853 199.287 296.108C202.319 296.213 205.134 296.348 208.061 297.122C211.46 298.021 214.747 297.665 218.25 297.528C225.724 297.237 233.455 296.659 240.83 296.607C246.141 296.57 251.744 296.199 257.075 296.519ZM450.863 299.416C452.191 300.118 455.169 299.83 456.505 299.635C458.858 299.292 459.11 298.359 460.603 296.261C463.172 292.648 465.258 289.188 466.77 285.003C469.663 276.993 470.845 268.799 472.115 260.42C473.526 251.11 470.948 241.459 470.026 232.212C469.814 230.091 469.524 227.989 469.189 225.883C468.989 224.624 468.936 220.342 468.108 219.252C466.517 217.159 459.116 218.847 456.206 219.037C448.084 219.568 439.909 219.692 431.791 219.784C427.463 219.833 423.11 220.014 418.825 220.048C416.857 220.063 414.932 219.965 412.957 219.774C412.296 219.71 411.651 219.558 410.986 219.521C408.707 219.395 408.878 219.065 408.289 221.083C407.258 224.618 408.051 229.115 407.781 232.784C407.418 237.687 407.222 242.66 407.312 247.573C407.395 252.113 407.24 256.643 407.41 261.194C407.48 263.078 407.686 264.614 408.183 266.414C408.745 268.449 409.364 273.203 410.763 274.61C410.922 274.771 412.112 274.397 412.428 274.796C412.915 275.411 412.825 276.713 413.16 277.11C414.241 278.397 416.476 278.499 418.097 279.077C422.545 280.663 426.626 282.385 430.819 284.524C434.565 286.435 440.605 288.062 442.857 291.832C443.89 293.56 444.029 295.839 444.978 297.623C446.06 299.654 443.896 298.592 446.545 299.416C447.739 299.787 449.64 299.416 450.863 299.416ZM55.9339 276.441C55.5969 281.132 52.9543 285.6 52.0345 290.213C51.604 292.372 50.8739 294.495 50.3679 296.642C49.8827 298.702 48.1298 301.141 48.3073 303.179C54.7771 300.874 61.3305 300.294 68.0925 299.673C74.5015 299.083 81.272 298.849 87.6271 298.846C94.1031 298.843 101.028 298.21 107.696 298.112C114.669 298.01 121.748 297.829 128.62 297.106C125.027 294.444 120.53 291.945 117.877 288.242C114.992 284.216 113.494 279.173 110.956 274.925C105.862 266.4 102.624 255.823 99.9538 246.246C94.5633 226.913 88.5395 207.937 87.0877 187.883C84.3247 189.298 82.1315 194.788 80.7481 197.522C78.9824 201.012 78.0578 204.795 76.91 208.505C74.5463 216.146 72.9105 224.068 70.0163 231.637C64.4847 246.104 60.9293 261.692 55.9339 276.441ZM407.137 163.763C408.334 172.41 410.843 181.168 410.939 189.919C410.96 191.844 410.634 193.982 411.035 195.881C411.464 197.907 412.858 199.699 413.662 201.625C414.939 204.682 418.174 210.949 415.055 213.54C414.991 211.081 412.741 207.959 411.608 205.81C409.9 202.57 407.656 199.609 405.804 196.45C401.928 189.838 397.585 183.367 392.59 177.539C387.725 171.861 382.118 166.824 376.959 161.418C375.409 159.793 362.974 144.158 362.48 144.377C366.337 159.25 372.894 172.192 381.867 184.646C386.266 190.751 391.546 194.768 396.901 199.94C401.361 204.247 409.767 208.853 408.225 215.91C415.196 215.24 422.122 214.169 429.157 214.169C428 205.265 427.114 196.503 425.049 187.745C422.704 177.801 421.116 167.56 419.132 157.527C417.107 147.285 413.672 137.37 411.536 127.148C409.49 117.359 407.732 107.587 406.232 97.6896C404.993 103.174 405.45 109.198 405.01 114.794C404.561 120.511 404.604 126.122 404.754 131.873C405.031 142.554 406.169 153.107 407.137 163.763ZM437.347 112.838C437.386 108.266 438.272 103.755 438.545 99.1943C438.629 97.7949 440.023 88.2473 438.723 87.7489C437.654 90.0795 437.405 93.0619 436.434 95.5072C435.464 97.9502 434.166 100.277 433.236 102.737C431.219 108.067 430.524 114.096 430.307 119.762C429.815 132.577 429.561 145.363 430.423 158.179C430.792 163.671 431.075 169.174 430.974 174.677C430.863 180.733 429.936 185.99 431.062 191.996C432.177 197.944 432.877 203.867 433.248 209.902C433.509 214.138 433.614 213.838 437.655 213.54C440.572 213.325 443.518 213.555 446.44 213.421C445.074 196.913 444.851 180.371 442.669 163.927C441.555 155.537 441.525 147.027 440.143 138.669C439.455 134.517 438.302 130.448 437.64 126.291C436.928 121.828 437.279 117.335 437.347 112.838ZM141.838 102.449C149.618 103.123 157.893 105.449 165.867 103.913C164.553 103.381 161.113 102.646 162.661 100.545C164.235 98.4085 166.888 101.119 168.457 100.839C169.425 100.666 171.564 96.6197 172.161 95.7819C173.515 93.8779 173.678 93.5461 176.113 93.0581C178.472 92.5861 179.007 93.0973 179.306 90.752C179.649 88.0552 178.716 85.0232 178.808 82.2654C179.007 76.3284 180.922 71.1221 182.705 65.5362C175.131 67.1839 167.725 69.1379 159.981 70.1998C156.671 70.6539 151.52 71.7012 148.513 69.4508C147.731 68.8656 147.856 68.0755 147.216 67.3972C146.143 66.2593 144.152 65.0822 142.63 64.7579C133.263 62.7638 132.349 76.1175 137.043 81.1143C138.219 82.3664 139.855 82.9847 141.059 84.1321C142.666 85.6623 142.797 87.2741 143.032 89.6099C143.472 93.9898 142.874 98.3867 141.006 102.393L141.838 102.449ZM255.512 165.491C258.277 166.016 261.163 165.896 263.935 166.344C264.92 166.503 267.874 167.058 268.74 166.482C270.062 165.603 270.532 162.378 271.158 160.876C272.257 158.234 273.813 155.93 274.862 153.24C279.148 142.254 283.144 131.223 288.327 120.612C286.341 120.095 284.815 120.075 282.813 119.808C280.727 119.53 278.837 118.297 276.847 117.767C274.956 117.263 272.974 117.392 271.1 116.806C270.068 116.484 269.182 115.767 268.165 115.516C266.543 115.117 264.649 114.884 263.685 115.949C262.696 117.041 262.349 120.036 261.811 121.447C260.378 125.205 258.713 128.832 257.513 132.677C256.43 136.144 255.401 139.575 254.448 143.074C253.44 146.769 251.455 149.813 250.246 153.342C249.326 156.028 248.458 158.774 248.321 161.638C248.187 164.433 247.781 164.611 250.575 165.057C251.986 165.282 254.184 166.121 255.512 165.491ZM437.454 296.283C438.174 296.619 438.853 296.574 439.49 296.149C433.246 293.512 427.172 289.854 420.658 288.044C414.547 286.348 408.608 284.32 402.721 282.23C397.937 280.532 393.637 279.21 389.312 276.221C386.687 274.407 384.355 272.367 382.551 269.716C380.543 266.764 380.096 262.564 377.921 259.906C374.985 263.13 371.537 265.571 368.063 268.133C366.862 269.019 363.979 270.952 363.568 272.323C363.049 274.054 364.439 275.71 365.126 277.461C366.886 281.947 367.746 286.43 368.701 291.094C369.084 292.963 369.91 295.772 371.445 296.555C372.843 297.268 376.892 296.75 378.632 296.618C387.708 295.93 396.623 295.226 405.754 295.852C416.086 296.561 427.148 297.05 437.454 296.283ZM455.582 213.162C457.231 213.168 458.843 212.962 460.486 212.962C459.537 208.532 461.755 202.801 462.542 198.379C463.421 193.433 464.091 188.319 464.678 183.334C465.914 172.833 466.475 162.459 466.491 151.881C466.506 141.645 468.369 132.292 470.979 122.452C473.782 111.884 478.371 102.381 482.166 92.1897C478.004 94.39 475.699 99.5388 473.512 103.475C470.747 108.452 468.906 113.963 467.777 119.55C465.599 130.329 463.209 141.14 460.696 151.9C458.079 163.105 456.54 174.412 453.542 185.524C452.08 190.944 450.092 197.611 449.982 203.199C449.936 205.511 449.239 210.353 450.287 212.361C451.267 214.239 453.433 213.354 455.582 213.162ZM206.59 199.261C206.503 200.412 206.421 201.506 206.217 202.643C208.502 202.621 211.395 200.25 213.355 199.186C215.742 197.889 218.132 196.459 220.467 195.156C224.975 192.639 230.092 190.981 234.905 188.914C240.433 186.539 245.515 183.67 250.802 180.81C252.649 179.812 265.922 174.058 265.699 172.487C262.785 172.389 259.871 172.293 256.957 172.196C254.459 172.113 250.589 172.677 248.197 171.905C246.887 171.482 245.415 169.924 244.921 168.704C244.431 167.496 245.532 161.944 244.892 161.59C241.631 164.919 239.58 169.345 236.664 172.937C233.442 176.908 229.278 179.226 224.689 181.336C219.621 183.666 214.376 185.47 209.197 187.467C207.013 188.309 207.057 188.791 206.866 191.186C206.653 193.862 206.677 196.577 206.59 199.261ZM469.928 299.962C475.421 300.551 481.051 300.215 486.587 300.675C488.602 300.842 491.394 301.091 489.368 303.795C488.092 305.498 484.003 304.951 482.149 305.069C477.17 305.386 471.899 305.216 466.908 305.142C465.858 305.127 464.697 304.815 463.635 304.885C462.409 304.966 460.941 305.847 459.824 305.841C459.135 305.836 458.888 305.11 458.295 305.044C457.001 304.898 455.708 304.792 454.403 304.792C434.679 304.797 415.226 304.4 395.552 304.379C386.144 304.369 376.585 304.207 367.181 303.765C365.206 303.672 353.96 304.076 354.271 300.52C354.431 298.689 358.102 298.431 359.441 298.236C360.434 298.092 361.464 298.115 362.458 298.062C365.1 297.92 366.257 298.556 365.7 295.665C363.586 284.7 359.798 275.638 351.705 267.754C345.086 261.307 337.118 255.46 329.622 250.076C320.52 243.539 313.137 236.664 307.733 226.662C304.577 220.821 301.936 214.849 300.314 208.39C299.731 206.067 299.717 203.424 299.002 201.184C298.452 199.46 297.199 198.253 296.461 196.466C287.405 211.591 275.403 224.245 264.399 237.883C259.141 244.398 253.142 250.586 246.86 256.254C244.995 257.936 243.256 259.692 241.516 261.502C240.06 263.017 237.749 264.364 236.52 266.045C235.341 267.657 235.631 267.58 237.426 268.86C239.798 270.552 242.412 271.958 244.822 273.608C248.673 276.246 252.877 278.475 256.32 281.65C260.045 285.083 263.299 289.06 266.554 292.931C268.724 295.511 271.571 298.822 272.116 302.084C272.297 303.164 272.983 305.833 272.077 306.624C271.303 307.299 271.381 307.043 270.42 306.631C269.161 306.091 268.791 304.852 267.252 304.261C263.317 302.751 258.554 303.27 254.459 303.251C250.362 303.233 246.231 303.693 242.136 303.676C232.785 303.638 223.634 304.395 214.286 304.801C204.357 305.233 194.307 304.197 184.412 304.344C177.08 304.453 169.553 303.905 162.019 304.312C158.143 304.521 154.337 304.036 150.559 303.982C145.611 303.911 140.531 304.584 135.541 304.68C127.351 304.838 119.261 304.837 111.022 305.034C93.2979 305.458 75.6701 305.896 57.9361 306.177C55.5705 306.214 52.9808 306.134 50.6431 306.4C48.1619 306.683 49.4428 307.21 47.7404 308.104C42.9744 310.604 44.0751 301.336 44.1893 299.513C44.8019 289.745 47.2817 280.165 50.2617 270.892C53.0889 262.096 55.3841 252.891 57.7784 243.906C60.3993 234.071 63.8141 224.639 66.9149 214.901C70.0923 204.923 72.6792 194.555 78.45 185.71C79.7645 183.696 81.1228 181.528 83.2373 180.258C85.6076 178.834 85.7095 179.665 85.7076 177.06C85.7062 174.605 85.8572 171.326 85.2781 168.984C84.7547 166.869 84.8354 168.123 83.6569 166.603C82.6978 165.367 81.6944 164.522 81.0063 163.022C76.7792 167.308 67.1033 165.046 63.0192 161.96C58.0205 158.182 54.2131 151.809 52.8179 145.739C51.6975 140.865 53.0723 131.574 58.467 129.23C61.0969 128.088 70.7564 127.224 71.1429 123.5C71.3421 121.578 67.9424 118.875 67.158 117.222C65.7043 114.16 64.3082 110.087 63.9042 106.73C63.1151 100.178 66.0895 92.8514 70.8276 88.4257C79.5195 80.3067 94.813 76.1401 105.994 81.2913C103.631 72.2657 102.205 64.4795 103.394 55.0909C104.42 47.0027 109.192 42.4774 115.758 38.4486C126.964 31.5727 142.202 28.8588 155.015 30.8581C157.927 31.3126 160.721 32.2872 163.417 33.0627C167.333 34.1893 172.022 33.8141 175.72 35.6446C178.401 36.9713 180.437 39.6143 182.792 41.3791C185.541 43.4392 187.825 46.5142 189.735 49.3578C193.82 55.4388 192.224 66.7247 188.805 72.8287C188.072 74.138 187.167 75.2401 185.954 76.1335C184.691 77.0633 182.765 77.3526 182.114 78.5585C180.447 81.6476 182.055 88.3351 182.278 91.6738C182.537 95.5506 180.577 98.4627 176.181 98.7719C173.638 98.9512 173.557 97.4758 172.339 100.512C171.55 102.479 170.833 104.623 169.694 106.427C167.346 110.145 163.045 109.782 159.128 109.681C154.593 109.564 150.126 108.848 145.589 108.395C146.788 112.235 150.068 115.215 152.116 118.635C154.886 123.262 156.553 127.097 157.003 132.487C157.348 136.628 156.603 139.898 153.769 142.98C152.596 144.256 151.556 144.319 151.848 145.79C152.025 146.688 153.577 148.169 154.127 148.885C155.58 150.781 157.267 152.521 158.546 154.545C163.468 162.333 164.922 174.206 164.934 183.273C164.935 183.689 165.156 184.573 164.973 185.003C164.837 185.321 163.804 186.326 163.789 186.413C163.587 187.578 164.724 189.577 166.507 189.775C168.38 189.982 171.811 188.419 173.554 187.905C176.342 187.083 179.184 186.476 181.967 185.632C186.46 184.268 190.933 183.181 195.502 182.112C197.566 181.63 199.642 181.228 201.713 180.776C204.072 180.263 205.168 179.27 206.385 181.67C207.43 183.73 206.78 184.103 209.311 183.065C211.823 182.034 214.278 180.756 216.731 179.592C221.057 177.54 226.209 175.711 229.941 172.681C236.166 167.627 238.471 159.578 244.429 154.214C246.088 152.721 247.077 152.695 248.126 150.626C249.249 148.412 249.828 145.573 250.418 143.191C251.452 139.021 252.188 134.836 253.126 130.669C254.294 125.478 256.818 120.777 258.661 115.826C259.378 113.897 259.75 111.445 260.908 109.712C261.215 109.252 261.801 108.993 262.04 108.613C262.864 107.307 262.855 106.948 263.069 105.377C264.067 98.0351 268.449 101.897 273.238 103.581C275.256 104.29 284.836 108.891 281.178 111.95C285.539 113.215 292.524 112.528 292.465 118.778C292.435 121.98 290.52 125.406 289.492 128.403C288.579 131.065 287.696 133.736 286.769 136.394C284.737 142.214 282.272 147.861 280.289 153.7C279.385 156.361 278.639 159.084 277.381 161.596C276.271 163.811 273.584 166.253 273.142 168.676C284.763 163.718 295.514 156.549 308.522 157.006C314.218 157.206 319.387 159.6 322.533 164.608C326.477 170.886 329.072 177.914 332.927 184.249C346.949 207.295 363.674 228.232 379.068 250.324C380.251 252.022 381.771 253.627 382.181 255.725C382.449 257.094 381.93 258.463 382.251 259.778C382.917 262.511 386.282 265.923 388.563 267.493C392.936 270.503 400.046 274.749 405.503 274.374C402.078 266.142 402.124 257.123 402.283 248.343C402.434 240.003 403.336 231.73 404.406 223.475C404.648 221.607 404.859 219.876 405.396 218.066C406.012 215.99 406.857 216.186 405.012 214.32C402.173 211.445 398.796 209.08 395.933 206.17C389.742 199.877 383.397 194.944 378.524 187.429C373.89 180.281 369.002 172.926 365.571 165.098C362.04 157.04 360.628 148.435 358.875 139.901C358.164 136.438 355.57 132.572 356.091 128.956C356.75 124.386 358.869 127.713 359.732 130.173C362.365 137.681 368.529 144.4 373.635 150.438C379.151 156.961 385.898 162.418 391.656 168.751C397.927 175.649 402.222 183.576 407.798 190.938C407.798 181.801 404.678 172.496 403.402 163.457C402.279 155.501 401.926 147.52 401.216 139.529C399.604 121.378 400.997 102.692 403.259 84.6706C404.335 76.1118 403.725 67.7545 403.757 59.1664C403.768 56.4332 402.636 50.1338 404.078 47.7083C406.84 43.0626 408.451 53.221 408.59 54.7355C409.425 63.7578 407.928 72.6796 408.693 81.6632C409.492 91.0447 411.227 100.163 412.704 109.436C414.303 119.476 416.907 129.29 419.4 139.138C422.018 149.477 424.219 160.033 427.129 170.289C427.914 167.065 426.813 163.105 426.595 159.821C426.285 155.122 425.678 150.422 425.626 145.711C425.542 138.202 425.483 130.554 425.908 123.081C426.327 115.714 426.2 107.995 428.46 100.898C429.532 97.5292 431.105 94.2428 432.643 91.0697C434.542 87.157 435.213 83.3633 436.264 79.2018C437.164 75.6379 438.482 72.168 439.082 68.5328C439.455 66.272 440.496 59.5983 443.084 64.6546C444.587 67.5893 443.937 71.94 443.979 75.0928C444.033 79.1348 443.414 83.065 443.319 87.09C443.135 94.9871 443.002 102.875 442.413 110.759C441.795 119.03 442.335 126.443 443.908 134.593C445.631 143.514 446.135 152.455 447.027 161.485C447.487 166.148 448.263 170.785 448.638 175.454C448.836 177.927 447.82 185.017 449.591 186.778C449.763 182.495 450.99 178.209 451.92 174.036C453.022 169.092 453.467 163.894 454.28 158.879C455.595 150.755 458.147 142.996 459.836 134.963C463.317 118.402 466.209 97.1185 480.797 86.2791C482.706 84.8608 484.803 83.814 486.867 82.6468C488.035 81.986 489.77 80.2765 491.107 79.9782C492.566 79.6526 493.174 79.9056 493.766 81.5981C494.59 83.9575 493.082 85.0595 491.674 86.7733C486.802 92.7032 484.721 100.305 481.712 107.259C474.823 123.184 471.775 139.981 471.74 157.195C471.722 166.206 471.1 174.898 470.139 183.855C469.105 193.494 467.744 203.688 464.815 212.961C467.752 213.62 470.939 212.638 471.736 216.052C471.932 216.891 471.578 217.883 471.795 218.974C472.005 220.035 472.512 221.091 472.811 222.134C473.431 224.293 473.758 226.422 474.059 228.639C475.224 237.204 477.223 245.351 477.436 254.036C477.632 262.063 476.06 270.197 474.612 278.071C473.153 286.001 468.969 292.761 465.675 299.932C467.093 299.932 468.51 299.947 469.928 299.962Z" fill="#FEEDE1" fill-opacity="0.8"/>
<path fill-rule="evenodd" clip-rule="evenodd" d="M283.496 281.732C281.934 282.174 274.392 283.008 274.394 285.374C274.395 286.793 281.927 286.765 283.259 286.92C283.339 285.191 283.417 283.462 283.496 281.732ZM300.143 298.062C304.489 298.889 310.389 297.727 313.167 293.895C314.465 292.105 315.081 289.382 315.504 287.245C315.908 285.209 317.153 280.128 316.306 278.22C315.265 275.876 305.279 278.326 302.372 278.595C297.298 279.063 292.052 279.118 286.976 278.787C286.976 284.029 286.708 289.138 289.791 293.649C292.015 296.904 296.192 297.673 300.143 298.062ZM299.27 304.537C294.548 302.808 289.59 303.932 286.515 298.862C285.735 297.576 285.078 296.193 284.606 294.764C284.375 294.139 284.196 293.498 284.068 292.841C284.309 291.428 283.791 291.03 282.516 291.646C280.013 291.159 277.268 292.877 274.632 292.371C268.237 291.143 269.399 281.983 273.69 278.812C274.538 278.185 275.384 278.011 276.355 277.702C278.494 277.02 279.652 277.781 281.608 277.588C283.189 277.432 283.624 275.774 285.323 275.043C286.435 274.566 287.98 274.603 289.149 274.554C295.27 274.303 301.41 274.305 307.569 273.906C310.442 273.72 313.544 274.175 316.359 273.685C317.676 273.454 317.487 272.577 318.735 273.347C320.027 274.143 319.469 277.089 319.404 278.264C319.027 285.057 318.622 292.343 314.983 298.282C311.654 303.716 305.102 304.271 299.27 304.537Z" fill="#FEEDE1" fill-opacity="0.8"/>
<path fill-rule="evenodd" clip-rule="evenodd" d="M49.8838 306.408C51.4031 306.392 52.9219 306.376 54.436 306.36C52.9148 306.377 51.3993 306.392 49.8838 306.408Z" fill="#FEEDE1" fill-opacity="0.8"/>
<path fill-rule="evenodd" clip-rule="evenodd" d="M471.751 161.57C471.748 160.111 471.745 158.651 471.741 157.195C471.744 158.655 471.747 160.112 471.751 161.57Z" fill="#FEEDE1" fill-opacity="0.8"/>
<path fill-rule="evenodd" clip-rule="evenodd" d="M85.2827 167.563C85.278 168.984 85.2733 170.406 85.2686 171.824C85.2728 170.402 85.2775 168.982 85.2827 167.563Z" fill="#FEEDE1" fill-opacity="0.8"/>
<path fill-rule="evenodd" clip-rule="evenodd" d="M211.57 304.797C212.779 304.799 213.988 304.8 215.191 304.803C213.98 304.802 212.776 304.8 211.57 304.797Z" fill="#FEEDE1" fill-opacity="0.8"/>
<path fill-rule="evenodd" clip-rule="evenodd" d="M138.179 304.507C139.387 304.511 140.596 304.515 141.799 304.519C140.588 304.516 139.384 304.511 138.179 304.507Z" fill="#FEEDE1" fill-opacity="0.8"/>
<path fill-rule="evenodd" clip-rule="evenodd" d="M402.444 245.467C402.391 246.426 402.337 247.385 402.284 248.343C402.338 247.382 402.391 246.425 402.444 245.467Z" fill="#FEEDE1" fill-opacity="0.8"/>
<path fill-rule="evenodd" clip-rule="evenodd" d="M469.929 299.962C468.995 299.952 468.061 299.942 467.127 299.932C468.065 299.541 468.999 299.559 469.929 299.962Z" fill="#FEEDE1" fill-opacity="0.8"/>
<path fill-rule="evenodd" clip-rule="evenodd" d="M386.998 304.21C387.669 304.2 388.339 304.189 389.003 304.178C388.331 304.188 387.664 304.199 386.998 304.21Z" fill="#FEEDE1" fill-opacity="0.8"/>
<path fill-rule="evenodd" clip-rule="evenodd" d="M471.386 173.411C471.402 172.685 471.419 171.96 471.435 171.238C471.419 171.964 471.402 172.687 471.386 173.411Z" fill="#FEEDE1" fill-opacity="0.8"/>
<path fill-rule="evenodd" clip-rule="evenodd" d="M408.692 81.6633C408.637 80.9152 408.582 80.1676 408.526 79.4214C408.582 80.1699 408.637 80.9166 408.692 81.6633Z" fill="#FEEDE1" fill-opacity="0.8"/>
<path fill-rule="evenodd" clip-rule="evenodd" d="M471.718 164.427C471.727 163.677 471.736 162.927 471.745 162.18C471.736 162.93 471.727 163.679 471.718 164.427Z" fill="#FEEDE1" fill-opacity="0.8"/>
<path fill-rule="evenodd" clip-rule="evenodd" d="M260.893 303.28C261.489 303.289 262.085 303.298 262.676 303.305C262.079 303.296 261.485 303.288 260.893 303.28Z" fill="#FEEDE1" fill-opacity="0.8"/>
<path fill-rule="evenodd" clip-rule="evenodd" d="M414.429 304.503C415.011 304.515 415.594 304.526 416.171 304.539C415.586 304.527 415.008 304.515 414.429 304.503Z" fill="#FEEDE1" fill-opacity="0.8"/>
<path fill-rule="evenodd" clip-rule="evenodd" d="M477.368 251.779C477.326 251.121 477.284 250.463 477.243 249.807C477.285 250.465 477.327 251.122 477.368 251.779Z" fill="#FEEDE1" fill-opacity="0.8"/>
<path fill-rule="evenodd" clip-rule="evenodd" d="M466.908 305.142C467.383 305.14 467.857 305.137 468.326 305.136C467.85 305.139 467.379 305.141 466.908 305.142Z" fill="#FEEDE1" fill-opacity="0.8"/>
<path fill-rule="evenodd" clip-rule="evenodd" d="M402.286 304.533C402.756 304.522 403.225 304.51 403.69 304.499C403.219 304.511 402.752 304.522 402.286 304.533Z" fill="#FEEDE1" fill-opacity="0.8"/>
<path fill-rule="evenodd" clip-rule="evenodd" d="M296.71 304.174C297.227 304.171 297.744 304.168 298.256 304.165C297.738 304.168 297.224 304.171 296.71 304.174Z" fill="#FEEDE1" fill-opacity="0.8"/>
<path fill-rule="evenodd" clip-rule="evenodd" d="M177.486 304.172C177.978 304.176 178.469 304.179 178.956 304.184C178.462 304.181 177.974 304.177 177.486 304.172Z" fill="#FEEDE1" fill-opacity="0.8"/>
<path fill-rule="evenodd" clip-rule="evenodd" d="M148.482 304.252C148.984 304.224 149.484 304.195 149.98 304.168C149.478 304.196 148.98 304.224 148.482 304.252Z" fill="#FEEDE1" fill-opacity="0.8"/>
<path fill-rule="evenodd" clip-rule="evenodd" d="M287.341 113.281C286.595 113.217 285.849 113.153 285.104 113.088C285.85 113.141 286.64 112.699 287.341 113.281Z" fill="#FEEDE1" fill-opacity="0.8"/>
<path fill-rule="evenodd" clip-rule="evenodd" d="M477.439 300.245C476.704 300.171 475.969 300.096 475.233 300.022C475.969 300.096 476.704 300.171 477.439 300.245Z" fill="#FEEDE1" fill-opacity="0.8"/>
<path fill-rule="evenodd" clip-rule="evenodd" d="M426.149 117.809C426.1 118.453 426.05 119.098 426.001 119.74C426.051 119.095 426.1 118.452 426.149 117.809Z" fill="#FEEDE1" fill-opacity="0.8"/>
<path fill-rule="evenodd" clip-rule="evenodd" d="M471.902 144.67C471.952 144.059 472.002 143.449 472.052 142.84C472.002 143.452 471.952 144.061 471.902 144.67Z" fill="#FEEDE1" fill-opacity="0.8"/>
<path fill-rule="evenodd" clip-rule="evenodd" d="M425.857 127.803C425.804 128.446 425.751 129.089 425.698 129.73C425.751 129.086 425.804 128.444 425.857 127.803Z" fill="#FEEDE1" fill-opacity="0.8"/>
<path fill-rule="evenodd" clip-rule="evenodd" d="M471.591 169.325C471.586 168.704 471.581 168.082 471.577 167.463C471.978 168.082 471.962 168.702 471.591 169.325Z" fill="#FEEDE1" fill-opacity="0.8"/>
<path fill-rule="evenodd" clip-rule="evenodd" d="M402.453 258.591C402.447 259.214 402.442 259.838 402.435 260.458C402.024 259.83 402.106 259.209 402.453 258.591Z" fill="#FEEDE1" fill-opacity="0.8"/>
<path fill-rule="evenodd" clip-rule="evenodd" d="M449.321 186.509C449.249 185.879 449.177 185.248 449.105 184.619C449.178 185.251 449.249 185.88 449.321 186.509Z" fill="#FEEDE1" fill-opacity="0.8"/>
<path fill-rule="evenodd" clip-rule="evenodd" d="M61.2312 128.631C60.7437 129.276 60.0796 128.834 59.5 128.913C60.0777 128.819 60.6545 128.725 61.2312 128.631Z" fill="#FEEDE1" fill-opacity="0.8"/>
<path fill-rule="evenodd" clip-rule="evenodd" d="M302.315 274.353C301.699 274.354 301.083 274.355 300.467 274.356C301.083 274.355 301.699 274.354 302.315 274.353Z" fill="#FEEDE1" fill-opacity="0.8"/>
<path fill-rule="evenodd" clip-rule="evenodd" d="M400.72 131.278C400.777 131.802 400.834 132.326 400.892 132.848C400.834 132.323 400.777 131.801 400.72 131.278Z" fill="#FEEDE1" fill-opacity="0.8"/>
<path fill-rule="evenodd" clip-rule="evenodd" d="M96.3196 79.2473C95.7004 79.2596 95.0811 79.2719 94.4619 79.2842C95.0745 78.9236 95.6919 78.8193 96.3196 79.2473Z" fill="#FEEDE1" fill-opacity="0.8"/>
<path fill-rule="evenodd" clip-rule="evenodd" d="M425.842 136.865C425.801 137.415 425.761 137.964 425.722 138.511C425.762 137.961 425.801 137.413 425.842 136.865Z" fill="#FEEDE1" fill-opacity="0.8"/>
<path fill-rule="evenodd" clip-rule="evenodd" d="M408.858 69.4284C408.907 68.9277 408.954 68.4269 409.002 67.929C408.954 68.4307 408.907 68.9295 408.858 69.4284Z" fill="#FEEDE1" fill-opacity="0.8"/>
<path fill-rule="evenodd" clip-rule="evenodd" d="M403.994 67.8595C403.945 68.4027 403.897 68.9465 403.849 69.4878C403.897 68.9436 403.945 68.4013 403.994 67.8595Z" fill="#FEEDE1" fill-opacity="0.8"/>
<path fill-rule="evenodd" clip-rule="evenodd" d="M135.018 31.5682C134.388 31.6447 133.758 31.7212 133.128 31.7971C133.758 31.7207 134.388 31.6447 135.018 31.5682Z" fill="#FEEDE1" fill-opacity="0.8"/>
<path fill-rule="evenodd" clip-rule="evenodd" d="M89.5067 79.6796C88.8601 79.7456 88.2135 79.8117 87.5674 79.8778C88.214 79.8117 88.8606 79.7456 89.5067 79.6796Z" fill="#FEEDE1" fill-opacity="0.8"/>
<path fill-rule="evenodd" clip-rule="evenodd" d="M443.836 81.272C443.876 80.7665 443.915 80.2606 443.954 79.7579C443.915 80.2639 443.875 80.768 443.836 81.272Z" fill="#FEEDE1" fill-opacity="0.8"/>
<path fill-rule="evenodd" clip-rule="evenodd" d="M68.2842 164.697C68.6566 164.702 69.0285 164.708 69.3952 164.713C69.0214 164.708 68.6528 164.702 68.2842 164.697Z" fill="#FEEDE1" fill-opacity="0.8"/>
<path fill-rule="evenodd" clip-rule="evenodd" d="M404.013 227.085C403.976 227.645 403.939 228.205 403.901 228.763C403.939 228.203 403.976 227.644 404.013 227.085Z" fill="#FEEDE1" fill-opacity="0.8"/>
<path fill-rule="evenodd" clip-rule="evenodd" d="M442 118.152C441.985 117.613 441.971 117.074 441.955 116.536C441.971 117.076 441.986 117.614 442 118.152Z" fill="#FEEDE1" fill-opacity="0.8"/>
<path fill-rule="evenodd" clip-rule="evenodd" d="M150.879 30.2918C150.304 30.2918 149.73 30.2923 149.156 30.2923C149.731 29.8977 150.305 29.9076 150.879 30.2918Z" fill="#FEEDE1" fill-opacity="0.8"/>
<path fill-rule="evenodd" clip-rule="evenodd" d="M304.228 157.264C303.599 157.28 302.97 157.296 302.342 157.313C302.96 156.875 303.589 156.865 304.228 157.264Z" fill="#FEEDE1" fill-opacity="0.8"/>
<path fill-rule="evenodd" clip-rule="evenodd" d="M359.209 303.258C359.582 303.266 359.955 303.274 360.323 303.283C359.949 303.276 359.579 303.267 359.209 303.258Z" fill="#FEEDE1" fill-opacity="0.8"/>
<path fill-rule="evenodd" clip-rule="evenodd" d="M373.254 303.914C373.626 303.9 373.999 303.887 374.366 303.875C373.992 303.888 373.623 303.901 373.254 303.914Z" fill="#FEEDE1" fill-opacity="0.8"/>
<path fill-rule="evenodd" clip-rule="evenodd" d="M153.457 304.173C153.845 304.183 154.234 304.193 154.617 304.202C154.227 304.192 153.842 304.183 153.457 304.173Z" fill="#FEEDE1" fill-opacity="0.8"/>
<path fill-rule="evenodd" clip-rule="evenodd" d="M477.047 245.537C476.992 245.003 476.937 244.47 476.881 243.939C476.937 244.473 476.992 245.005 477.047 245.537Z" fill="#FEEDE1" fill-opacity="0.8"/>
<path fill-rule="evenodd" clip-rule="evenodd" d="M426.317 155.626C426.362 156.135 426.406 156.643 426.449 157.148C426.405 156.639 426.361 156.133 426.317 155.626Z" fill="#FEEDE1" fill-opacity="0.8"/>
<path fill-rule="evenodd" clip-rule="evenodd" d="M445.839 146.899C445.779 146.36 445.718 145.821 445.658 145.284C445.719 145.823 445.779 146.361 445.839 146.899Z" fill="#FEEDE1" fill-opacity="0.8"/>
<path fill-rule="evenodd" clip-rule="evenodd" d="M156.607 304.494C156.999 304.488 157.391 304.482 157.779 304.477C157.385 304.483 156.996 304.489 156.607 304.494Z" fill="#FEEDE1" fill-opacity="0.8"/>
<path fill-rule="evenodd" clip-rule="evenodd" d="M299.27 304.537C299.651 304.519 300.031 304.502 300.408 304.485C300.026 304.503 299.648 304.52 299.27 304.537Z" fill="#FEEDE1" fill-opacity="0.8"/>
<path fill-rule="evenodd" clip-rule="evenodd" d="M442.653 107.541C442.636 106.995 442.619 106.449 442.602 105.904C442.619 106.451 442.636 106.996 442.653 107.541Z" fill="#FEEDE1" fill-opacity="0.8"/>
<path fill-rule="evenodd" clip-rule="evenodd" d="M119.461 304.851C119.843 304.848 120.225 304.845 120.602 304.843C120.218 304.846 119.84 304.849 119.461 304.851Z" fill="#FEEDE1" fill-opacity="0.8"/>
<path fill-rule="evenodd" clip-rule="evenodd" d="M442.492 304.845C442.885 304.849 443.278 304.853 443.666 304.858C443.271 304.854 442.882 304.85 442.492 304.845Z" fill="#FEEDE1" fill-opacity="0.8"/>
<path fill-rule="evenodd" clip-rule="evenodd" d="M450.976 304.799C451.355 304.825 451.734 304.853 452.109 304.879C451.728 304.852 451.352 304.825 450.976 304.799Z" fill="#FEEDE1" fill-opacity="0.8"/>
<path fill-rule="evenodd" clip-rule="evenodd" d="M454.403 304.792C454.789 304.803 455.176 304.815 455.557 304.824C455.17 304.812 454.787 304.802 454.403 304.792Z" fill="#FEEDE1" fill-opacity="0.8"/>
<path fill-rule="evenodd" clip-rule="evenodd" d="M471.995 149.064C471.97 148.527 471.945 147.989 471.92 147.453C471.945 147.992 471.97 148.528 471.995 149.064Z" fill="#FEEDE1" fill-opacity="0.8"/>
<path fill-rule="evenodd" clip-rule="evenodd" d="M212.724 297.752C213.898 297.691 215.074 297.629 216.249 297.568C215.074 297.629 213.898 297.69 212.724 297.752Z" fill="#FEEDE1" fill-opacity="0.8"/>
<path fill-rule="evenodd" clip-rule="evenodd" d="M141.838 102.449C142.858 102.538 143.878 102.627 144.897 102.714C143.877 102.626 142.857 102.537 141.838 102.449Z" fill="#FEEDE1" fill-opacity="0.8"/>
<path fill-rule="evenodd" clip-rule="evenodd" d="M429.813 146.792C429.845 147.765 429.878 148.739 429.909 149.709C429.877 148.735 429.845 147.764 429.813 146.792Z" fill="#FEEDE1" fill-opacity="0.8"/>
<path fill-rule="evenodd" clip-rule="evenodd" d="M450.861 299.416C451.926 299.481 452.99 299.545 454.055 299.609C452.984 299.658 451.896 299.963 450.861 299.416Z" fill="#FEEDE1" fill-opacity="0.8"/>
<path fill-rule="evenodd" clip-rule="evenodd" d="M444.562 184.298C444.57 183.37 444.578 182.441 444.585 181.515C444.577 182.444 444.57 183.371 444.562 184.298Z" fill="#FEEDE1" fill-opacity="0.8"/>
<path fill-rule="evenodd" clip-rule="evenodd" d="M441.837 213.466C442.771 213.479 443.706 213.491 444.64 213.504C443.705 213.491 442.771 213.479 441.837 213.466Z" fill="#FEEDE1" fill-opacity="0.8"/>
<path fill-rule="evenodd" clip-rule="evenodd" d="M206.658 197.145C206.634 197.853 206.611 198.56 206.589 199.264C206.612 198.556 206.635 197.851 206.658 197.145Z" fill="#FEEDE1" fill-opacity="0.8"/>
<path fill-rule="evenodd" clip-rule="evenodd" d="M457.384 167.187C457.346 167.891 457.308 168.594 457.271 169.295C457.309 168.59 457.347 167.888 457.384 167.187Z" fill="#FEEDE1" fill-opacity="0.8"/>
<path fill-rule="evenodd" clip-rule="evenodd" d="M437.453 296.283C438.133 296.237 438.812 296.191 439.491 296.147C438.98 296.557 438.466 296.591 437.453 296.283Z" fill="#FEEDE1" fill-opacity="0.8"/>
<path fill-rule="evenodd" clip-rule="evenodd" d="M432.905 204.248C432.952 205.007 432.999 205.766 433.045 206.523C432.998 205.763 432.952 205.006 432.905 204.248Z" fill="#FEEDE1" fill-opacity="0.8"/>
<path fill-rule="evenodd" clip-rule="evenodd" d="M178.787 84.4589C178.794 83.7259 178.801 82.993 178.809 82.2628C178.802 82.9967 178.795 83.7278 178.787 84.4589Z" fill="#FEEDE1" fill-opacity="0.8"/>
<path fill-rule="evenodd" clip-rule="evenodd" d="M433.729 213.619L436.262 213.564C435.426 213.968 434.581 213.982 433.729 213.619Z" fill="#FEEDE1" fill-opacity="0.8"/>
<path fill-rule="evenodd" clip-rule="evenodd" d="M457.098 219.029C456.501 219.034 455.904 219.039 455.311 219.045C455.909 219.04 456.504 219.034 457.098 219.029Z" fill="#FEEDE1" fill-opacity="0.8"/>
<path fill-rule="evenodd" clip-rule="evenodd" d="M238.351 296.574C239.177 296.585 240.004 296.596 240.831 296.607C239.998 297.024 239.17 297.083 238.351 296.574Z" fill="#FEEDE1" fill-opacity="0.8"/>
<path fill-rule="evenodd" clip-rule="evenodd" d="M82.584 299.011C83.4232 298.936 84.2628 298.861 85.102 298.786C84.2628 298.861 83.4232 298.936 82.584 299.011Z" fill="#FEEDE1" fill-opacity="0.8"/>
<path fill-rule="evenodd" clip-rule="evenodd" d="M430.105 153.043C430.147 153.804 430.188 154.566 430.229 155.326C430.188 154.563 430.147 153.803 430.105 153.043Z" fill="#FEEDE1" fill-opacity="0.8"/>
<path fill-rule="evenodd" clip-rule="evenodd" d="M162.237 104.238C162.945 103.889 163.658 103.83 164.378 104.2C163.664 104.213 162.951 104.225 162.237 104.238Z" fill="#FEEDE1" fill-opacity="0.8"/>
<path fill-rule="evenodd" clip-rule="evenodd" d="M406.962 161.839C407.02 162.481 407.079 163.124 407.137 163.765C407.078 163.121 407.02 162.48 406.962 161.839Z" fill="#FEEDE1" fill-opacity="0.8"/>
<path fill-rule="evenodd" clip-rule="evenodd" d="M466.728 146.846C466.364 146.217 466.377 145.592 466.746 144.972C466.739 145.597 466.734 146.222 466.728 146.846Z" fill="#FEEDE1" fill-opacity="0.8"/>
<path fill-rule="evenodd" clip-rule="evenodd" d="M430.22 125.021C430.22 125.657 430.22 126.293 430.22 126.927C430.22 126.29 430.22 125.656 430.22 125.021Z" fill="#FEEDE1" fill-opacity="0.8"/>
<path fill-rule="evenodd" clip-rule="evenodd" d="M455.581 213.162C456.309 212.939 457.038 212.623 457.763 213.17C457.035 213.168 456.308 213.165 455.581 213.162Z" fill="#FEEDE1" fill-opacity="0.8"/>
<path fill-rule="evenodd" clip-rule="evenodd" d="M220.252 297.464C220.985 297.396 221.717 297.328 222.45 297.259C221.717 297.328 220.985 297.396 220.252 297.464Z" fill="#FEEDE1" fill-opacity="0.8"/>
<path fill-rule="evenodd" clip-rule="evenodd" d="M119.795 297.466C120.466 297.171 121.136 297.016 121.797 297.488C121.129 297.48 120.462 297.473 119.795 297.466Z" fill="#FEEDE1" fill-opacity="0.8"/>
<path fill-rule="evenodd" clip-rule="evenodd" d="M257.075 296.519C257.793 296.205 258.509 296.033 259.217 296.541C258.503 296.533 257.789 296.526 257.075 296.519Z" fill="#FEEDE1" fill-opacity="0.8"/>
<path fill-rule="evenodd" clip-rule="evenodd" d="M97.3164 203.669C97.3702 204.317 97.4245 204.965 97.4778 205.611C97.4235 204.963 97.3697 204.316 97.3164 203.669Z" fill="#FEEDE1" fill-opacity="0.8"/>
<path fill-rule="evenodd" clip-rule="evenodd" d="M263.936 166.343C264.642 166.087 265.345 165.953 266.039 166.382C265.337 166.368 264.636 166.356 263.936 166.343Z" fill="#FEEDE1" fill-opacity="0.8"/>
<path fill-rule="evenodd" clip-rule="evenodd" d="M430.093 185.633C430.132 186.267 430.171 186.9 430.21 187.532C430.171 186.898 430.131 186.266 430.093 185.633Z" fill="#FEEDE1" fill-opacity="0.8"/>
<path fill-rule="evenodd" clip-rule="evenodd" d="M96.8606 128.481C96.8021 128.991 96.7436 129.501 96.6855 130.009C96.7441 129.498 96.8021 128.989 96.8606 128.481Z" fill="#FEEDE1" fill-opacity="0.8"/>
<path fill-rule="evenodd" clip-rule="evenodd" d="M55.9333 276.441C55.8969 276.938 55.8611 277.434 55.8252 277.928C55.8625 277.431 55.8979 276.936 55.9333 276.441Z" fill="#FEEDE1" fill-opacity="0.8"/>
<path fill-rule="evenodd" clip-rule="evenodd" d="M444.876 188.985C444.836 188.472 444.796 187.958 444.757 187.447C444.796 187.961 444.836 188.474 444.876 188.985Z" fill="#FEEDE1" fill-opacity="0.8"/>
<path fill-rule="evenodd" clip-rule="evenodd" d="M393.453 295.56C394.082 295.564 394.711 295.569 395.34 295.573C394.711 295.569 394.082 295.564 393.453 295.56Z" fill="#FEEDE1" fill-opacity="0.8"/>
<path fill-rule="evenodd" clip-rule="evenodd" d="M206.421 201.515C206.538 201.888 206.656 202.263 206.773 202.637C205.988 202.827 205.871 202.452 206.421 201.515Z" fill="#FEEDE1" fill-opacity="0.8"/>
<path fill-rule="evenodd" clip-rule="evenodd" d="M253.595 165.499C254.234 165.496 254.873 165.493 255.512 165.491C254.874 165.794 254.235 166.002 253.595 165.499Z" fill="#FEEDE1" fill-opacity="0.8"/>
<path fill-rule="evenodd" clip-rule="evenodd" d="M97.6748 206.737C97.6965 207.303 97.7182 207.87 97.739 208.435C97.7168 207.868 97.6956 207.302 97.6748 206.737Z" fill="#FEEDE1" fill-opacity="0.8"/>
<path fill-rule="evenodd" clip-rule="evenodd" d="M104.436 298.085C105.052 298.085 105.669 298.084 106.286 298.084C105.668 298.084 105.052 298.085 104.436 298.085Z" fill="#FEEDE1" fill-opacity="0.8"/>
<path fill-rule="evenodd" clip-rule="evenodd" d="M408.514 212.709C408.536 213.231 408.559 213.752 408.583 214.271C408.56 213.748 408.537 213.229 408.514 212.709Z" fill="#FEEDE1" fill-opacity="0.8"/>
<path fill-rule="evenodd" clip-rule="evenodd" d="M91.3398 298.721C91.9463 298.319 92.5542 298.354 93.1631 298.715C92.5552 298.717 91.9473 298.719 91.3398 298.721Z" fill="#FEEDE1" fill-opacity="0.8"/>
<path fill-rule="evenodd" clip-rule="evenodd" d="M107.31 121.195C107.342 121.727 107.375 122.26 107.409 122.789C107.377 122.256 107.343 121.725 107.31 121.195Z" fill="#FEEDE1" fill-opacity="0.8"/>
<path fill-rule="evenodd" clip-rule="evenodd" d="M88.1846 298.776C88.8151 298.778 89.4457 298.781 90.0758 298.784C89.4433 299.214 88.8132 299.235 88.1846 298.776Z" fill="#FEEDE1" fill-opacity="0.8"/>
<path fill-rule="evenodd" clip-rule="evenodd" d="M437.348 112.837C437.353 112.297 437.358 111.756 437.362 111.217C437.357 111.758 437.352 112.297 437.348 112.837Z" fill="#FEEDE1" fill-opacity="0.8"/>
<path fill-rule="evenodd" clip-rule="evenodd" d="M147.86 103.379C148.464 103.458 149.067 103.537 149.669 103.615C149.066 103.536 148.463 103.458 147.86 103.379Z" fill="#FEEDE1" fill-opacity="0.8"/>
<path fill-rule="evenodd" clip-rule="evenodd" d="M94.6318 150.057C94.6399 150.562 94.6479 151.067 94.6573 151.57C94.6493 151.064 94.6408 150.56 94.6318 150.057Z" fill="#FEEDE1" fill-opacity="0.8"/>
<path fill-rule="evenodd" clip-rule="evenodd" d="M441.407 149.984C441.374 149.47 441.341 148.955 441.308 148.443C441.341 148.959 441.374 149.472 441.407 149.984Z" fill="#FEEDE1" fill-opacity="0.8"/>
<path fill-rule="evenodd" clip-rule="evenodd" d="M300.725 298.173C301.469 298.24 302.213 298.308 302.957 298.375C302.213 298.307 301.469 298.24 300.725 298.173Z" fill="#FEEDE1" fill-opacity="0.8"/>
<path fill-rule="evenodd" clip-rule="evenodd" d="M298.238 278.905C297.836 278.912 297.434 278.918 297.035 278.926C297.439 278.921 297.838 278.913 298.238 278.905Z" fill="#FEEDE1" fill-opacity="0.8"/>
<path fill-rule="evenodd" clip-rule="evenodd" d="M298.271 297.878C298.895 297.94 299.52 298.001 300.144 298.063C299.52 298.001 298.895 297.94 298.271 297.878Z" fill="#FEEDE1" fill-opacity="0.8"/>
<path fill-rule="evenodd" clip-rule="evenodd" d="M185.932 255.84C186.744 260.429 179.612 264.918 179.046 258.394C178.84 256.008 180.435 254.33 182.221 252.872C184.757 250.802 186.173 252.784 185.932 255.84Z" fill="#FEEDE1" fill-opacity="0.8"/>
<path fill-rule="evenodd" clip-rule="evenodd" d="M107.312 199.846C108.992 200.533 121.829 204.716 115.161 206.82C113.396 207.377 110.728 207.46 109.198 206.479C107.357 205.298 105.5 201.814 107.312 199.846Z" fill="#FEEDE1" fill-opacity="0.8"/>
<path fill-rule="evenodd" clip-rule="evenodd" d="M110.473 137.694C114.83 137.188 118.845 144.345 113.473 144.112C109.562 143.943 104.304 137.694 110.473 137.694Z" fill="#FEEDE1" fill-opacity="0.8"/>
<path fill-rule="evenodd" clip-rule="evenodd" d="M126.06 155.241C129.698 158.416 122.954 165.52 120.277 162.771C118.909 161.366 120.171 158.34 121.299 157.165C122.457 155.959 124.518 155.732 126.06 155.241Z" fill="#FEEDE1" fill-opacity="0.8"/>
<path fill-rule="evenodd" clip-rule="evenodd" d="M136.892 237.539C134.744 237.88 125.297 240.967 127.268 235.361C128.019 233.223 130.114 233.857 132.03 233.955C135.118 234.113 136.892 233.965 136.892 237.539Z" fill="#FEEDE1" fill-opacity="0.8"/>
<path fill-rule="evenodd" clip-rule="evenodd" d="M130.669 251.98C133.885 253.701 129.184 263.328 126.519 261.28C122.821 258.437 127.879 252.845 130.669 251.98Z" fill="#FEEDE1" fill-opacity="0.8"/>
<path fill-rule="evenodd" clip-rule="evenodd" d="M144.694 244.241C146.258 243.603 153.629 250.693 150.823 252.665C149.385 253.676 146.66 251.943 145.793 250.898C144.168 248.938 144.02 246.521 144.694 244.241Z" fill="#FEEDE1" fill-opacity="0.8"/>
<path fill-rule="evenodd" clip-rule="evenodd" d="M102.166 186.29C103.764 186.552 106.524 186.635 106.627 188.881C106.718 190.855 104.243 191.494 102.501 191.649C100.693 191.809 98.3003 191.299 98.2659 189.027C98.2295 186.575 102.11 186.722 102.166 186.29Z" fill="#FEEDE1" fill-opacity="0.8"/>
<path fill-rule="evenodd" clip-rule="evenodd" d="M141.576 284.013C143.278 285.046 151.217 288.767 147.814 291.454C146.54 292.46 142.68 290.383 141.811 289.327C140.774 288.067 139.761 285.114 141.576 284.013Z" fill="#FEEDE1" fill-opacity="0.8"/>
<path fill-rule="evenodd" clip-rule="evenodd" d="M163.645 257.019C163.399 252.913 170.327 251.279 168.891 257.107C168.486 258.75 168.094 261.245 166.062 261.34C163.661 261.453 163.574 258.612 163.645 257.019Z" fill="#FEEDE1" fill-opacity="0.8"/>
<path fill-rule="evenodd" clip-rule="evenodd" d="M142.245 185.613C142.293 188.728 136.325 191.475 136.279 186.538C136.237 182.126 142.468 180.834 142.245 185.613Z" fill="#FEEDE1" fill-opacity="0.8"/>
<path fill-rule="evenodd" clip-rule="evenodd" d="M138.303 169.39C139.774 169.864 141.728 170.108 141.858 171.976C141.995 173.954 140.158 174.834 138.505 174.723C137.15 174.632 135.144 173.629 134.897 172.158C134.536 169.999 136.643 169.858 138.303 169.39Z" fill="#FEEDE1" fill-opacity="0.8"/>
<path fill-rule="evenodd" clip-rule="evenodd" d="M110.955 226.42C110.93 223.85 116.081 220.761 117.03 223.743C117.333 224.698 114.906 228.977 114.098 229.298C111.961 230.146 111.663 228.169 110.955 226.42Z" fill="#FEEDE1" fill-opacity="0.8"/>
<path fill-rule="evenodd" clip-rule="evenodd" d="M153.168 269.202C151.427 270.76 146.206 275.136 146.596 269.261C146.845 265.508 153.627 265.704 153.168 269.202Z" fill="#FEEDE1" fill-opacity="0.8"/>
<path fill-rule="evenodd" clip-rule="evenodd" d="M238.237 285.993C238.807 283.523 246.976 287.808 244.25 290.929C243.335 291.976 240.943 291.028 240.023 290.408C238.203 289.179 238.163 288.045 238.237 285.993Z" fill="#FEEDE1" fill-opacity="0.8"/>
<path fill-rule="evenodd" clip-rule="evenodd" d="M192.722 233.114C193.04 232.013 193.394 230.066 194.445 229.363C196.346 228.091 198.001 230.009 198.002 232.031C198.002 235.802 193.71 236.991 192.722 233.114Z" fill="#FEEDE1" fill-opacity="0.8"/>
<path fill-rule="evenodd" clip-rule="evenodd" d="M172.477 277.205C174.598 277.691 179.32 282.847 176.581 284.95C173.945 286.975 170.44 278.745 172.477 277.205Z" fill="#FEEDE1" fill-opacity="0.8"/>
<path fill-rule="evenodd" clip-rule="evenodd" d="M174.494 238.179C177.222 238.396 180.97 242.812 176.731 243.514C173.416 244.064 169.559 239.26 174.494 238.179Z" fill="#FEEDE1" fill-opacity="0.8"/>
<path fill-rule="evenodd" clip-rule="evenodd" d="M199.185 258.501C199.868 256.197 206.632 258.665 206.252 261.202C206.05 262.55 203.285 262.867 201.831 262.51C199.691 261.985 199.135 260.582 199.185 258.501Z" fill="#FEEDE1" fill-opacity="0.8"/>
<path fill-rule="evenodd" clip-rule="evenodd" d="M119.46 129.837C119.509 126.859 125.231 125.645 125.65 128.646C126.029 131.358 119.388 134.243 119.46 129.837Z" fill="#FEEDE1" fill-opacity="0.8"/>
<path fill-rule="evenodd" clip-rule="evenodd" d="M197.294 289.188C197.706 287.69 197.884 285.888 199.755 285.691C201.897 285.465 201.833 287.107 201.582 288.809C200.897 293.44 198.28 293.671 197.294 289.188Z" fill="#FEEDE1" fill-opacity="0.8"/>
<path fill-rule="evenodd" clip-rule="evenodd" d="M106.92 165.271C103.937 165.944 98.473 160.198 101.813 158.965C104.166 158.095 106.92 163.537 106.92 165.271Z" fill="#FEEDE1" fill-opacity="0.8"/>
<path fill-rule="evenodd" clip-rule="evenodd" d="M144.972 209.903C143.454 210.618 143.104 211.051 141.938 209.878C140.922 208.856 140.967 206.009 141.839 204.946C145.178 200.876 145.099 208.255 144.972 209.903Z" fill="#FEEDE1" fill-opacity="0.8"/>
<path fill-rule="evenodd" clip-rule="evenodd" d="M157.361 201.647C158.944 201.849 163.649 206.312 161.199 208.086C158.197 210.259 156.499 203.451 157.361 201.647Z" fill="#FEEDE1" fill-opacity="0.8"/>
<path fill-rule="evenodd" clip-rule="evenodd" d="M191.62 202.823C190.469 207.255 187.596 204.272 187.759 200.919C188.02 195.547 190.997 200.225 191.62 202.823Z" fill="#FEEDE1" fill-opacity="0.8"/>
<path fill-rule="evenodd" clip-rule="evenodd" d="M209.089 274.009C211.037 274.815 213.68 282.259 210.899 282.658C207.775 283.106 208.815 275.559 209.089 274.009Z" fill="#FEEDE1" fill-opacity="0.8"/>
<path fill-rule="evenodd" clip-rule="evenodd" d="M184.771 269.827C186.999 269.075 187.816 273.775 186.521 274.648C183.671 276.569 184.272 270.936 184.771 269.827Z" fill="#FEEDE1" fill-opacity="0.8"/>
<path fill-rule="evenodd" clip-rule="evenodd" d="M163.645 257.019C163.617 257.643 163.589 258.267 163.56 258.887C163.587 258.262 163.616 257.641 163.645 257.019Z" fill="#FEEDE1" fill-opacity="0.8"/>
<path fill-rule="evenodd" clip-rule="evenodd" d="M238.236 285.993C238.213 286.633 238.19 287.273 238.166 287.909C238.188 287.268 238.212 286.631 238.236 285.993Z" fill="#FEEDE1" fill-opacity="0.8"/>
<path fill-rule="evenodd" clip-rule="evenodd" d="M199.184 258.501C199.172 259.043 199.159 259.586 199.145 260.126C199.157 259.581 199.171 259.041 199.184 258.501Z" fill="#FEEDE1" fill-opacity="0.8"/>
<path fill-rule="evenodd" clip-rule="evenodd" d="M445.648 249.16C450.268 249.012 455.421 247.273 459.961 247.826C461.21 247.978 464.087 248.293 462.085 250.147C461.127 251.033 456.543 250.575 455.155 250.869C446.674 252.665 437.045 253.823 428.348 253.673C424.277 253.603 420.175 253.277 416.106 253.062C412.039 252.847 411.64 251.194 416.215 250.669C420.968 250.123 425.844 250.326 430.62 250.32C435.641 250.313 440.637 249.495 445.648 249.16Z" fill="#FEEDE1" fill-opacity="0.8"/>
<path fill-rule="evenodd" clip-rule="evenodd" d="M455.79 238.03C455.346 239.296 454.955 242.201 453.251 242.392C450.865 242.658 450.47 238.561 450.558 237.063C450.665 235.254 451.315 232.249 453.563 232.876C455.462 233.405 455.652 236.582 455.79 238.03Z" fill="#FEEDE1" fill-opacity="0.8"/>
<path fill-rule="evenodd" clip-rule="evenodd" d="M441.343 237.103C441.692 235.747 441.863 232.691 443.78 232.587C445.923 232.471 446.535 235.656 446.521 237.181C446.507 238.63 445.971 241.366 444.265 241.701C441.952 242.154 441.745 238.652 441.343 237.103Z" fill="#FEEDE1" fill-opacity="0.8"/>
<path fill-rule="evenodd" clip-rule="evenodd" d="M417.284 239.534C416.59 241.163 416.131 243.408 413.982 242.297C412.321 241.438 412.089 237.973 412.402 236.387C412.727 234.743 413.415 232.858 415.303 233.597C417.481 234.45 417.261 237.74 417.284 239.534Z" fill="#FEEDE1" fill-opacity="0.8"/>
<path fill-rule="evenodd" clip-rule="evenodd" d="M435.505 238.03C433.457 244.238 429.721 240.037 431.14 235.403C432.623 230.558 435.316 235.263 435.505 238.03Z" fill="#FEEDE1" fill-opacity="0.8"/>
<path fill-rule="evenodd" clip-rule="evenodd" d="M425.526 238.337C424.958 239.43 424.353 241.788 422.82 241.54C420.94 241.235 420.88 237.618 421.086 236.271C421.266 235.092 421.795 233.127 423.368 233.153C425.642 233.189 425.489 236.922 425.526 238.337Z" fill="#FEEDE1" fill-opacity="0.8"/>
<path fill-rule="evenodd" clip-rule="evenodd" d="M466.377 239.529C464.852 242.949 462.755 240.003 463.427 237.573C464.422 233.971 466.291 237.163 466.377 239.529Z" fill="#FEEDE1" fill-opacity="0.8"/>
<path fill-rule="evenodd" clip-rule="evenodd" d="M429.041 250.324C427.376 250.317 425.711 250.311 424.046 250.305C425.712 249.991 427.378 249.869 429.041 250.324Z" fill="#FEEDE1" fill-opacity="0.8"/>
<path fill-rule="evenodd" clip-rule="evenodd" d="M462.127 247.812C460.683 247.821 459.239 247.83 457.796 247.84C459.237 247.407 460.681 247.398 462.127 247.812Z" fill="#FEEDE1" fill-opacity="0.8"/>
<path fill-rule="evenodd" clip-rule="evenodd" d="M445.648 249.16C444.492 249.237 443.337 249.314 442.182 249.392C443.338 249.314 444.493 249.237 445.648 249.16Z" fill="#FEEDE1" fill-opacity="0.8"/>
<path fill-rule="evenodd" clip-rule="evenodd" d="M417.284 239.534C417.273 238.704 417.262 237.875 417.252 237.047C417.679 237.872 417.649 238.701 417.284 239.534Z" fill="#FEEDE1" fill-opacity="0.8"/>
<path fill-rule="evenodd" clip-rule="evenodd" d="M426.344 253.656C427.014 253.662 427.684 253.668 428.349 253.674C427.677 253.668 427.01 253.662 426.344 253.656Z" fill="#FEEDE1" fill-opacity="0.8"/>
<path fill-rule="evenodd" clip-rule="evenodd" d="M415.09 253.062C415.769 253.062 416.448 253.062 417.122 253.062C416.44 253.062 415.765 253.062 415.09 253.062Z" fill="#FEEDE1" fill-opacity="0.8"/>
<path fill-rule="evenodd" clip-rule="evenodd" d="M420.655 250.396C419.711 250.473 418.767 250.551 417.823 250.628C418.767 250.551 419.711 250.473 420.655 250.396Z" fill="#FEEDE1" fill-opacity="0.8"/>
<path fill-rule="evenodd" clip-rule="evenodd" d="M433.416 250.313C432.484 250.315 431.552 250.317 430.62 250.319C431.552 249.926 432.483 249.915 433.416 250.313Z" fill="#FEEDE1" fill-opacity="0.8"/>
<path fill-rule="evenodd" clip-rule="evenodd" d="M425.525 238.337C425.502 237.472 425.48 236.607 425.458 235.744C425.481 236.609 425.503 237.473 425.525 238.337Z" fill="#FEEDE1" fill-opacity="0.8"/>
<path fill-rule="evenodd" clip-rule="evenodd" d="M412.404 236.387C412.399 237.23 412.393 238.073 412.387 238.914C412.392 238.069 412.398 237.228 412.404 236.387Z" fill="#FEEDE1" fill-opacity="0.8"/>
<path fill-rule="evenodd" clip-rule="evenodd" d="M450.945 248.846C450.121 248.921 449.298 248.995 448.475 249.069C449.299 248.995 450.122 248.921 450.945 248.846Z" fill="#FEEDE1" fill-opacity="0.8"/>
<path fill-rule="evenodd" clip-rule="evenodd" d="M466.377 239.529C466.35 238.792 466.323 238.055 466.297 237.319C466.324 238.056 466.35 238.792 466.377 239.529Z" fill="#FEEDE1" fill-opacity="0.8"/>
<path fill-rule="evenodd" clip-rule="evenodd" d="M431.323 253.68C431.897 253.669 432.47 253.659 433.038 253.649C432.463 253.66 431.893 253.67 431.323 253.68Z" fill="#FEEDE1" fill-opacity="0.8"/>
<path fill-rule="evenodd" clip-rule="evenodd" d="M455.791 238.03C455.74 237.5 455.69 236.97 455.64 236.442C455.69 236.973 455.741 237.501 455.791 238.03Z" fill="#FEEDE1" fill-opacity="0.8"/>
<path fill-rule="evenodd" clip-rule="evenodd" d="M435.504 238.03C435.467 237.486 435.429 236.942 435.393 236.399C435.43 236.944 435.467 237.487 435.504 238.03Z" fill="#FEEDE1" fill-opacity="0.8"/>
<path fill-rule="evenodd" clip-rule="evenodd" d="M139.746 78.2514C137.491 77.6596 137.068 74.4898 137.43 72.5429C137.841 71.6046 138.253 70.6668 138.664 69.7285C138.503 69.3816 138.342 69.0347 138.182 68.6878C138.388 66.7555 137.861 65.9158 140.081 66.6984C144.206 68.153 144.866 78.1023 139.746 78.2514Z" fill="#FEEDE1" fill-opacity="0.8"/>
<path fill-rule="evenodd" clip-rule="evenodd" d="M173.135 72.1229C174.993 71.9766 178.368 74.1406 176.518 76.2343C175.373 77.5312 171.596 76.9177 170.056 77.1886C168.013 77.5478 165.882 78.0391 166.987 74.9788C167.855 72.5755 170.955 72.0601 173.135 72.1229Z" fill="#FEEDE1" fill-opacity="0.8"/>
<path fill-rule="evenodd" clip-rule="evenodd" d="M171.179 86.5176C169.291 85.004 170.134 78.1098 173.006 79.3502C175.961 80.6268 172.754 85.5227 171.179 86.5176Z" fill="#FEEDE1" fill-opacity="0.8"/>
<path fill-rule="evenodd" clip-rule="evenodd" d="M137.432 72.5428C137.432 73.2683 137.431 73.9942 137.43 74.7163C137.036 73.9895 137.049 73.2659 137.432 72.5428Z" fill="#FEEDE1" fill-opacity="0.8"/>
<path fill-rule="evenodd" clip-rule="evenodd" d="M139.746 78.2513C140.131 78.2405 140.516 78.2291 140.896 78.2192C140.509 78.2315 140.128 78.2414 139.746 78.2513Z" fill="#FEEDE1" fill-opacity="0.8"/>
<path fill-rule="evenodd" clip-rule="evenodd" d="M372.801 276.796C372.624 279.932 369.257 277.614 369.496 275.516C369.929 271.709 372.082 275.471 372.801 276.796Z" fill="#FEEDE1" fill-opacity="0.8"/>
<defs>
<linearGradient id="paint0_linear_183_882" x1="269" y1="0.0339355" x2="269" y2="356.034" gradientUnits="userSpaceOnUse">
<stop stop-color="#632329"/>
<stop offset="0.49648" stop-color="#F25551"/>
<stop offset="1" stop-color="#50F283" stop-opacity="0.8"/>
</linearGradient>
</defs>
</svg>
